# Created by Kenney (www.kenney.nl)

mtllib Branch.mtl

g mergedBlocks

v 0.07749996 0.06785254 -0.02757214
v 0.00249996 0.06785254 -0.02757214
v 0.05874996 0.4048877 -0.2438101
v 0.02124996 0.4048877 -0.2438101
v 0.115 1.367925E-09 0.05490381
v -0.03500004 1.367925E-09 0.05490381
v 0.00249996 0.03035254 -0.09252404
v -0.008303955 1.367925E-09 -0.08747529
v 0.05874996 0.3861377 -0.2762861
v 0.02124996 0.3861377 -0.2762861
v 0.08830388 1.367925E-09 -0.08747529
v 0.07749996 0.03035254 -0.09252404
v 0.07861602 0.4091628 -0.3717679
v 0.065744 0.4161707 -0.3164893
v 0.001383912 0.4091628 -0.3717679
v 0.01425593 0.4161707 -0.3164893
v 0.01719625 0.4582143 -0.2436677
v -0.02086123 0.4953127 -0.2225521
v -0.008547787 0.4359193 -0.2822837
v -0.05947728 0.4618702 -0.2804762
v 0.1394772 0.4618702 -0.2804762
v 0.1008611 0.4953127 -0.2225521
v 0.08854771 0.4359193 -0.2822837
v 0.06280367 0.4582143 -0.2436677
v 0.05287198 0.3763647 -0.2689759
v 0.02712794 0.3763647 -0.2689759
v 0.06371318 0.3857535 -0.2527142
v 0.05084116 0.396901 -0.2334061
v 0.03999997 0.3648329 -0.3886997
v 0.01628675 0.3857535 -0.2527142
v 0.02915876 0.396901 -0.2334061
v 0.1520634 0.4618827 -0.2206045
v -0.07206346 0.4618827 -0.2206045

vn 0 0.540002 0.8416637
vn 0 0.7722464 0.6353231
vn -0.9363292 0.3040818 -0.1755617
vn 0 0.8660254 -0.5
vn 0 -0.1640828 -0.9864465
vn -0.9989032 0.04055042 -0.0234118
vn 0.9989032 0.04055042 -0.02341179
vn 0 -0.4589012 -0.8884873
vn 0.9363292 0.3040818 -0.1755617
vn 0 -1 0
vn 0 0.8555696 -0.5176879
vn 0 0.9745474 0.2241818
vn 0 -0.8555696 0.5176879
vn 0 -0.9745474 -0.2241818
vn 0.5901278 0.4634816 -0.6610098
vn -0.01779331 0.8709791 -0.4909979
vn -0.01779332 0.8709791 -0.4909979
vn -0.5901278 -0.4634816 0.6610098
vn 0.01779331 -0.8709791 0.4909979
vn 0.01779332 -0.8709791 0.4909979
vn 0.01779331 0.8709791 -0.4909979
vn 0.01779332 0.8709791 -0.4909979
vn -0.5901278 0.4634816 -0.6610098
vn 0.5901278 -0.4634816 0.6610098
vn -0.01779332 -0.8709791 0.4909979
vn -0.01779331 -0.8709791 0.4909979
vn 0 0.7665405 0.6421959
vn 0 -0.7665405 -0.6421959
vn -0.8135687 0.06196913 -0.5781572
vn 0.8135687 -0.06196913 0.5781572
vn 0 0.3568069 -0.9341782
vn 0 -0.3568069 0.9341782
vn 0.8135687 0.06196913 -0.5781572
vn -0.8135687 -0.06196913 0.5781572
vn 0.5461317 0.8297709 -0.1149807
vn -0.5461317 -0.8297709 0.1149807
vn -0.5461317 0.8297709 -0.1149807
vn 0.5461317 -0.8297709 0.1149807

vt 0.07749996 0.06785254
vt 0.00249996 0.06785254
vt 0.05874996 0.4048877
vt 0.02124996 0.4048877
vt -0.115 0.05490381
vt 0.03500004 0.05490381
vt -0.07749996 -0.02757214
vt -0.00249996 -0.02757214
vt -0.09252404 0.03035254
vt -0.02757214 0.06785254
vt -0.08747529 1.367925E-09
vt 0.05490381 1.367925E-09
vt -0.05874996 -0.2438101
vt -0.02124996 -0.2438101
vt -0.05874996 -0.2762861
vt -0.02124996 -0.2762861
vt 0.008303955 1.367925E-09
vt -0.08830388 1.367925E-09
vt -0.00249996 0.03035254
vt -0.07749996 0.03035254
vt -0.2762861 0.3861377
vt -0.2438101 0.4048877
vt 0.2762861 0.3861377
vt 0.09252404 0.03035254
vt 0.2438101 0.4048877
vt 0.02757214 0.06785254
vt -0.05874996 0.3861377
vt -0.02124996 0.3861377
vt 0.08747529 1.367925E-09
vt -0.05490381 1.367925E-09
vt -0.115 -0.05490381
vt -0.08830388 0.08747529
vt 0.03500004 -0.05490381
vt 0.008303955 0.08747529
vt -0.07861602 -0.371768
vt -0.06574401 -0.3164893
vt -0.001383911 -0.371768
vt -0.01425593 -0.3164893
vt -0.001383911 0.371768
vt -0.06574401 0.3164893
vt -0.07861602 0.371768
vt -0.01425593 0.3164893
vt -0.01719625 -0.2436677
vt 0.02086123 -0.2225521
vt 0.008547787 -0.2822837
vt 0.05947728 -0.2804762
vt 0.008547787 0.2822837
vt 0.02086123 0.2225521
vt -0.01719625 0.2436677
vt 0.05947728 0.2804762
vt -0.1394772 -0.2804762
vt -0.1008611 -0.2225521
vt -0.08854771 -0.2822837
vt -0.06280368 -0.2436677
vt -0.08854771 0.2822837
vt -0.1008611 0.2225521
vt -0.1394772 0.2804762
vt -0.06280368 0.2436677
vt -0.05287198 -0.2689759
vt -0.02712794 -0.2689759
vt -0.02712794 0.2689759
vt -0.05287198 0.2689759
vt -0.2822837 0.4359193
vt -0.2436677 0.4582143
vt -0.2527141 0.3857535
vt -0.2334061 0.396901
vt 0.2527141 0.3857535
vt 0.2436677 0.4582143
vt 0.2822837 0.4359193
vt 0.2334061 0.396901
vt -0.03999997 0.3648329
vt -0.07861602 0.4091628
vt -0.001383911 0.4091628
vt 0.001383911 0.4091628
vt 0.07861602 0.4091628
vt 0.03999997 0.3648329
vt 0.2527142 0.3857535
vt -0.2527142 0.3857535
vt -0.1520634 -0.2206045
vt -0.1520634 0.2206045
vt 0.07206346 -0.2206045
vt 0.07206346 0.2206045

usemtl wood(Clone)

f 3/3/1 2/2/1 1/1/1
f 2/2/1 3/3/1 4/4/1
f 1/7/2 6/6/2 5/5/2
f 6/6/2 1/7/2 2/8/2
f 8/11/3 2/10/3 7/9/3
f 2/10/3 8/11/3 6/12/3
f 9/15/4 4/14/4 3/13/4
f 4/14/4 9/15/4 10/16/4
f 7/19/5 11/18/5 8/17/5
f 11/18/5 7/19/5 12/20/5
f 7/9/6 4/22/6 10/21/6
f 4/22/6 7/9/6 2/10/6
f 3/25/7 12/24/7 9/23/7
f 12/24/7 3/25/7 1/26/7
f 7/19/8 9/27/8 12/20/8
f 9/27/8 7/19/8 10/28/8
f 1/26/9 11/29/9 12/24/9
f 11/29/9 1/26/9 5/30/9
f 6/33/10 11/32/10 5/31/10
f 11/32/10 6/33/10 8/34/10

usemtl foliage(Clone)

f 15/37/11 14/36/12 13/35/11
f 14/36/12 15/37/11 16/38/12
f 13/41/13 14/40/14 15/39/13
f 16/42/14 15/39/13 14/40/14
f 19/45/15 18/44/16 17/43/15
f 18/44/16 19/45/15 20/46/17
f 17/49/18 18/48/19 19/47/18
f 20/50/20 19/47/18 18/48/19
f 23/53/23 22/52/22 21/51/21
f 22/52/22 23/53/23 24/54/23
f 21/57/26 22/56/25 23/55/24
f 24/58/24 23/55/24 22/56/25
f 14/36/12 26/60/27 25/59/27
f 26/60/27 14/36/12 16/38/12
f 25/62/28 26/61/28 14/40/14
f 16/42/14 14/40/14 26/61/28
f 27/65/29 24/64/23 23/63/23
f 24/64/23 27/65/29 28/66/29
f 23/69/24 24/68/24 27/67/30
f 28/70/30 27/67/30 24/68/24
f 15/73/11 13/72/11 29/71/31
f 29/76/32 13/75/13 15/74/13
f 17/68/15 30/77/33 19/69/15
f 30/77/33 17/68/15 31/70/33
f 19/63/18 30/78/34 17/64/18
f 31/66/34 17/64/18 30/78/34
f 22/52/22 32/79/35 21/51/21
f 21/57/26 32/80/36 22/56/25
f 33/81/37 18/44/16 20/46/17
f 20/50/20 18/48/19 33/82/38

